<?xml version="1.0" standalone="no"?>
<!DOCTYPE svg PUBLIC "-//W3C//DTD SVG 20010904//EN"
 "http://www.w3.org/TR/2001/REC-SVG-20010904/DTD/svg10.dtd">
<svg version="1.0" xmlns="http://www.w3.org/2000/svg"
 width="679.000000pt" height="646.000000pt" viewBox="0 0 679.000000 646.000000"
 preserveAspectRatio="xMidYMid meet">

<g transform="translate(0.000000,646.000000) scale(0.100000,-0.100000)"
fill="#000000" stroke="none">
<path d="M2890 6439 c0 -9 5 -41 10 -70 49 -255 86 -748 76 -1014 -37 -1057
-446 -1770 -1239 -2160 -305 -150 -649 -245 -1047 -287 -128 -13 -593 -17
-655 -4 l-40 7 65 -66 c300 -307 846 -521 1555 -610 375 -47 804 -47 1079 0
73 13 132 32 187 62 16 9 31 -209 26 -366 -8 -236 -47 -401 -140 -586 -84
-169 -151 -259 -331 -443 -75 -76 -116 -126 -110 -131 22 -23 275 -162 454
-250 509 -253 1017 -412 1527 -480 775 -104 1557 7 2178 309 123 59 286 157
299 179 3 4 -149 5 -337 3 -1055 -14 -1722 147 -2090 506 -553 539 -324 1496
679 2839 267 358 550 691 995 1176 82 89 148 166 146 172 -2 5 -26 18 -52 28
-173 64 -398 62 -600 -5 -179 -59 -415 -203 -615 -376 -268 -231 -524 -528
-897 -1038 -130 -178 -202 -261 -189 -219 178 604 123 1186 -170 1795 -124
255 -267 481 -453 709 -102 126 -310 340 -311 320z"/>
</g>
</svg>
